HIERARCHY
ROOT HipCenter
{
    OFFSET 0.0 0.0 -0.0
    CHANNELS 6 Xposition Yposition Zposition Zrotation Xrotation Yrotation
    JOINT Spine
    {
        OFFSET 0.0 11.29879379272461 0.0
        CHANNELS 3 Zrotation Xrotation Yrotation
        JOINT ShoulderCenter
        {
            OFFSET 0.0 31.7155818939209 0.0
            CHANNELS 3 Zrotation Xrotation Yrotation
            JOINT LeftShoulder
            {
                OFFSET 12.371820449829102 0.0 0.0
                CHANNELS 3 Zrotation Xrotation Yrotation
                JOINT LeftElbow
                {
                    OFFSET 28.576499938964844 0.0 0.0
                    CHANNELS 3 Zrotation Xrotation Yrotation
                    JOINT LeftWrist
                    {
                        OFFSET 27.68238067626953 0.0 0.0
                        CHANNELS 3 Zrotation Xrotation Yrotation
                        JOINT LeftHand
                        {
                            OFFSET 3.6386945247650146 0.0 0.0
                            CHANNELS 3 Zrotation Xrotation Yrotation
                            End Site
                            {
                                OFFSET 1.4554779529571533 0.0 0.0
                            }
                        }
                    }
                }
            }
            JOINT RightShoulder
            {
                OFFSET -12.371820449829102 0.0 0.0
                CHANNELS 3 Zrotation Xrotation Yrotation
                JOINT RightElbow
                {
                    OFFSET -28.576499938964844 0.0 0.0
                    CHANNELS 3 Zrotation Xrotation Yrotation
                    JOINT RightWrist
                    {
                        OFFSET -27.68238067626953 0.0 0.0
                        CHANNELS 3 Zrotation Xrotation Yrotation
                        JOINT RightHand
                        {
                            OFFSET -3.6386945247650146 0.0 0.0
                            CHANNELS 3 Zrotation Xrotation Yrotation
                            End Site
                            {
                                OFFSET -1.4554779529571533 0.0 0.0
                            }
                        }
                    }
                }
            }
            End Site
            {
                OFFSET 0.0 12.686232566833496 0.0
            }
        }
    }
    JOINT LeftHip
    {
        OFFSET 12.995109558105469 0.0 0.0
        CHANNELS 3 Zrotation Xrotation Yrotation
        JOINT LeftKnee
        {
            OFFSET 0.0 -34.824562072753906 0.0
            CHANNELS 3 Zrotation Xrotation Yrotation
            JOINT LeftAnkle
            {
                OFFSET 0.0 -38.89946746826172 0.0
                CHANNELS 3 Zrotation Xrotation Yrotation
                JOINT LeftFoot
                {
                    OFFSET 0.0 -10.546791076660156 0.0
                    CHANNELS 3 Zrotation Xrotation Yrotation
                    End Site
                    {
                        OFFSET 0.0 0.0 4.218717098236084
                    }
                }
            }
        }
    }
    JOINT RightHip
    {
        OFFSET -12.995109558105469 0.0 0.0
        CHANNELS 3 Zrotation Xrotation Yrotation
        JOINT RightKnee
        {
            OFFSET 0.0 -34.824562072753906 0.0
            CHANNELS 3 Zrotation Xrotation Yrotation
            JOINT RightAnkle
            {
                OFFSET 0.0 -38.89946746826172 0.0
                CHANNELS 3 Zrotation Xrotation Yrotation
                JOINT RightFoot
                {
                    OFFSET 0.0 -10.546791076660156 0.0
                    CHANNELS 3 Zrotation Xrotation Yrotation
                    End Site
                    {
                        OFFSET 0.0 0.0 4.218717098236084
                    }
                }
            }
        }
    }
}
MOTION
Frames: 7
Frame Time: 0.03333333333333333
156.60000610351562 -14.699999809265137 -0.20000000298023224 -13.298524721782373 1.5203552032825298 -89.60622284842542 3.2534893376725473 22.879718046286033 1.4743568145543677 2.523310449503886e-07 -7.098162822753284e-08 -1.2181456779322355 98.9579476625433 -9.183379530614403 -175.10791884366412 -1.0659217312338154e-06 7.84683764725822e-06 38.58481832739039 179.99998855640862 -85.69212423029518 -156.90552846457686 -2.7829853462805764e-15 0.0 0.0 -96.96184106593545 -6.456071518016684 -171.44165531472453 5.267275446464454e-06 3.6924945233742924e-06 -41.54862162285319 -5.005371551941919e-06 -70.75033892139662 -10.897590028043158 8.827812596100317e-32 -3.1805546814635164e-15 3.1805546814635164e-15 -4.8539860215140385 29.36417907835578 -31.44148858061694 -2.7858245563177713 5.358723487071398 -1.3790962411377827 90.35371227901217 -44.665586446583696 110.52436122172155 0.0 0.0 6.3611093629270335e-15 10.871572469746273 -15.530696252552449 9.85494781265081 -6.377003386331468 28.601600212663488 31.432927911136552 -113.44368515483309 -38.25839106747519 -165.38834648636836 -1.9878466759146976e-15 0.0 0.0
151.5 -15.09999942779541 -0.6000000238418579 -13.79092700473489 -4.6156662527899064e-07 -88.93287649311263 3.1988904719049054 22.96628332763242 0.8438355225835884 -2.5362572542796936e-07 1.3821784104685652e-07 -2.318239436542136 97.4812266834098 -6.375236085292264 -177.01442471657936 -3.375895731607845e-06 -3.000660323903218e-07 36.436647609625226 -179.99995239770382 -85.96855636682707 -158.79012961273563 7.951386703658791e-16 1.1034765745125397e-32 1.5902773407317582e-15 -98.36900491493881 -5.746865810543353 -170.71436228193323 6.380760550787736e-07 6.442111463264542e-06 -42.823082022532375 -2.2215060945659242e-05 -78.25550486231145 -12.22381948525752 0.0 0.0 0.0 -6.021254225639078 24.398280774841176 -30.160188309749188 -10.61972722692701 20.180444818340636 -3.3570813729445925 91.21044642392113 -42.78309398789638 104.92652955410406 -6.361109362927032e-15 8.827812596100317e-32 -1.590277340731758e-15 8.086364477362398 -13.755077377005804 11.292063650081426 -1.6807534444979293 30.76087257611749 29.44911728388098 -101.28078767921474 -34.29218287074268 -155.35072433394402 -3.975693351829397e-16 0.0 0.0
146.8000030517578 -14.699999809265137 -1.2000000476837158 -12.804266339312035 -1.0157306603560436 -89.12517699955802 3.638491412208182 22.157249280186107 -0.4086061486424348 3.697625717495721e-07 2.4393435448004656e-07 -1.018357998602178 95.16564695100345 -2.75973671290505 -178.6380521976426 -3.0113485351262357e-06 -4.111474436877897e-06 33.44458114885594 1.4546366855009962e-05 -79.82085156103399 20.687943598121073 7.951386703658792e-16 1.1034765745125397e-32 1.5902773407317584e-15 -99.76437105066515 -3.688924408871484 -171.68381569029157 -5.053223765277154e-07 5.184832133916544e-06 -40.200711523293634 -7.913553776756187e-06 -79.61928155468453 -17.135202959788195 -6.3611093629270335e-15 -3.975693351829395e-16 -1.5902773407317584e-15 -5.0318538265720685 13.998425474906936 -28.838451871555556 -25.366406932636913 37.06171910608777 -1.482817746218909 81.93021027031655 -39.92903868055397 80.53531279936287 0.0 0.0 7.951386703658791e-16 5.728552913788383 -12.055317882597853 14.437950373081158 4.344202706297361 30.401489431874133 23.68558848116769 -92.2487144501662 -32.207022763560154 -144.38106343896152 -3.1805546814635168e-15 -8.827812596100317e-32 3.1805546814635168e-15
142.70001220703125 -14.0 -2.0 -11.809822921610431 -1.5291715835070714 -88.47193049780991 4.023446390534803 22.76767640839859 -1.2456664933503994 -2.930003364300533e-07 1.0129424003006884e-07 0.5523917590340323 93.70356824689219 -0.9070031621892584 -179.08496113394355 -5.399475788595121e-06 4.8780634682371844e-06 31.496282008814653 6.669873980871017e-05 -84.02053933856668 19.901848376657732 -3.9756933518293955e-16 0.0 0.0 -101.306761848009 -4.836427213964462 -173.08900208040225 3.611833520020551e-06 2.468159903871189e-06 -38.66431091416525 -179.99991594957388 -86.71539850629367 161.39502676152688 -6.361109362927032e-15 -1.590277340731758e-15 -8.827812596100317e-32 -1.2342657819572098 -1.238415665185982 -23.023770693850178 -48.063351194044316 54.97446805026341 7.352057197086638 75.83516294389813 -37.475878837727855 60.09046935679027 -7.951386703658792e-16 1.5902773407317584e-15 -1.1927080055488188e-15 4.762775150406268 -8.801099267424666 18.62204642786635 8.528707365454107 27.004880742718626 17.377422081255624 -90.16672781360039 -31.4366794271516 -138.52137507202556 2.3854160110976376e-15 0.0 0.0
139.3000030517578 -13.300000190734863 -2.700000047683716 -10.713152801418515 -2.5342513916323384 -87.07526346018462 3.5391756430113497 24.043854192398847 -1.5682649511202822 -6.363091787643951e-07 7.943913288366157e-08 1.7958170231954826 93.22344192745975 -1.6576346123357564 -178.22143034854489 3.935270329613317e-06 -3.8047620132123572e-06 29.38395847831769 -7.1451388497334045e-06 -72.2315688531157 20.40091927082829 -2.7829853462805768e-15 -3.1805546814635164e-15 -3.1805546814635164e-15 -104.03696911541726 -10.743166749715925 -173.79507197379837 -2.7677537049495453e-06 -1.4272642211351312e-06 -40.86747508624521 9.151407149394319e-05 -88.43341240122909 -17.82475643715158 0.0 0.0 1.5902773407317584e-15 1.3217415054396278 -18.898598869326147 -9.25297534669382 -79.70539033161937 73.19445916335332 31.75283034429534 82.49167440631194 -34.66084356775008 62.42812631207019 -1.5902773407317584e-15 7.951386703658792e-16 7.951386703658792e-16 4.345255051263723 -5.125594157455031 23.420374230114753 9.527010254757508 22.738445770699624 12.942509976166354 -90.51042093899972 -29.788765868448632 -137.69715235473757 -7.156248033292914e-15 3.1805546814635168e-15 -3.1805546814635164e-15
136.3000030517578 -12.600000381469727 -3.200000047683716 -9.713219952976306 -3.049787549610998 -86.36964000557391 3.2817911276615783 25.28351436628812 -1.722920730007306 -5.49540875359965e-07 6.92586369952377e-07 2.319269572793556 93.01984534847911 -1.830595840290415 -178.8306202807173 -1.8825765037155237e-06 -8.535829493074802e-08 30.01169802817752 1.3349474411447334e-05 -81.27788103184379 19.409793638373124 1.9878466759146976e-15 -2.758691436281349e-32 -1.590277340731758e-15 -107.16047109326384 -15.711737419381121 -174.33633764733503 -4.725692172927169e-08 4.0161692503185325e-06 -46.04522110047241 179.99811589300384 -89.98130460917397 164.5500707090617 -6.3611093629270335e-15 3.975693351829395e-16 1.5902773407317584e-15 3.284599282481057 -36.52872572442343 10.462707466492995 177.18049223706154 79.46469158358845 134.57030514961622 88.27499111365553 -34.98774090365817 74.10759692591421 -1.5902773407317584e-15 -2.2069531490250793e-32 1.5902773407317584e-15 4.467625848298052 -1.6097719852619583 27.023517462946742 8.656714245498193 18.649081329844407 10.275167062543533 -90.96761712773892 -28.42356652664335 -139.14348968728103 6.3611093629270335e-15 0.0 0.0
133.59999084472656 -12.100000381469727 -3.5 -8.20238518733396 -3.5716499897487592 -86.42662111932064 2.5446975406368066 25.49267367658741 -1.4095415322150764 -6.193152532588144e-07 2.5397646311045276e-06 3.3074467879096225 93.02295569801012 -2.2631026709519 -179.35010183117228 -7.337547455853188e-07 2.838375974709656e-06 30.227098272190787 -8.154782811894447e-06 -81.31874925830088 18.607606027116145 -8.34895603884173e-15 3.1805546814635164e-15 1.5902773407317584e-15 -108.44536230594582 -16.205249695159175 -174.65197710516767 -3.2058232938825626e-06 1.8304252569672248e-06 -49.69947891052066 -1.6424199064088456e-05 -88.37879686150713 -18.060937539573732 4.4139062980501586e-32 -3.1805546814635168e-15 1.5902773407317584e-15 3.9415738569996788 -52.55630608636888 25.616319470776656 141.69980679122736 68.8735021245794 173.92661974133193 92.52403429615276 -36.195582376693196 90.30983899043534 0.0 0.0 -1.5902773407317584e-15 4.651068900422369 1.3740690655413996 30.28132111441448 6.90845788806592 14.710688517544847 7.921051900942955 -91.8115698219631 -28.0968407600564 -140.23246784054484 5.565970692561154e-15 -3.1805546814635168e-15 1.5448672043175555e-31
